# xmcd CD database file
#
# Track frame offsets:
#	150
#	24072
#	52426
#	90257
#	124462
#	150329
#	181224
#	202770
#	230655
#	257276
#
# Disc length: 3696 seconds
#
# Revision: 0
# Processed by: cddbd v1.5.1PL0 Copyright (c) Steve Scherf et al.
# Submitted via: CDex 1.51
#
DISCID=720e6e0a
DTITLE=Ricardo Cavalli - Súndaram
DYEAR=2004
DGENRE=Jazz
TTITLE0=Devi Saraswathi
TTITLE1=Sonny Monkish
TTITLE2=Green Deva's Face
TTITLE3=Noble Soul
TTITLE4=Su Mirada
TTITLE5=Mr. Turrentine
TTITLE6=Joe's Mood
TTITLE7=Suave
TTITLE8=Japanese Rendezvous
TTITLE9=Stompin' At the Savoy
EXTD=YEAR: 2004
EXTT0=
EXTT1=
EXTT2=
EXTT3=
EXTT4=
EXTT5=
EXTT6=
EXTT7=
EXTT8=
EXTT9=
PLAYORDER=
